<svg width="36" height="36" viewBox="0 0 36 36" fill="none" xmlns="http://www.w3.org/2000/svg">
<rect width="36" height="36" rx="8" fill="#7D6FD2"/>
<path d="M22.9833 16.9917V20.325C22.9833 20.5417 22.975 20.75 22.95 20.95C22.7583 23.2 21.4333 24.3167 18.9917 24.3167H18.6583C18.45 24.3167 18.25 24.4167 18.125 24.5833L17.125 25.9167C16.6833 26.5083 15.9667 26.5083 15.525 25.9167L14.525 24.5833C14.4167 24.4417 14.175 24.3167 13.9917 24.3167H13.6583C11 24.3167 9.66667 23.6583 9.66667 20.325V16.9917C9.66667 14.55 10.7917 13.225 13.0333 13.0333C13.2333 13.0083 13.4417 13 13.6583 13H18.9917C21.65 13 22.9833 14.3333 22.9833 16.9917Z" stroke="white" stroke-width="1.5" stroke-miterlimit="10" stroke-linecap="round" stroke-linejoin="round"/>
<path d="M26.3167 13.6584V16.9917C26.3167 19.4417 25.1917 20.7584 22.95 20.95C22.975 20.75 22.9833 20.5417 22.9833 20.325V16.9917C22.9833 14.3334 21.65 13 18.9917 13H13.6583C13.4417 13 13.2333 13.0084 13.0333 13.0334C13.225 10.7917 14.55 9.66669 16.9917 9.66669H22.325C24.9833 9.66669 26.3167 11 26.3167 13.6584Z" stroke="white" stroke-width="1.5" stroke-miterlimit="10" stroke-linecap="round" stroke-linejoin="round"/>
<path d="M19.2463 19.0417H19.2538" stroke="white" stroke-width="2" stroke-linecap="round" stroke-linejoin="round"/>
<path d="M16.3296 19.0417H16.3371" stroke="white" stroke-width="2" stroke-linecap="round" stroke-linejoin="round"/>
<path d="M13.4129 19.0417H13.4204" stroke="white" stroke-width="2" stroke-linecap="round" stroke-linejoin="round"/>
</svg>
