<svg width="50" height="54" viewBox="0 0 50 54" fill="none" xmlns="http://www.w3.org/2000/svg">
<path d="M42.625 0C41.5204 0 40.625 0.89543 40.625 2V5.39501C40.625 6.00139 40.3499 6.57502 39.877 6.95462L26.3021 17.8525C25.5727 18.4381 24.5348 18.4399 23.8034 17.8568L10.1283 6.95468C9.65226 6.5752 9.375 5.99958 9.375 5.39083V2C9.375 0.895429 8.47957 0 7.375 0H2C0.89543 0 0 0.89543 0 2V51.3333C0 52.4379 0.895431 53.3333 2 53.3333H7.375C8.47957 53.3333 9.375 52.4379 9.375 51.3333V48.9792C9.375 47.8746 10.2704 46.9792 11.375 46.9792H38.625C39.7296 46.9792 40.625 47.8746 40.625 48.9792V51.3333C40.625 52.4379 41.5204 53.3333 42.625 53.3333H48C49.1046 53.3333 50 52.4379 50 51.3333V2C50 0.895428 49.1046 0 48 0H42.625ZM6.25 42.2917C6.25 43.1546 5.55045 43.8542 4.6875 43.8542C3.82456 43.8542 3.125 43.1546 3.125 42.2917C3.125 41.4287 3.82456 40.7292 4.6875 40.7292C5.55045 40.7292 6.25 41.4287 6.25 42.2917ZM6.25 36.0417C6.25 36.9046 5.55044 37.6042 4.6875 37.6042C3.82456 37.6042 3.125 36.9046 3.125 36.0417C3.125 35.1787 3.82456 34.4792 4.6875 34.4792C5.55044 34.4792 6.25 35.1787 6.25 36.0417ZM6.25 29.7917C6.25 30.6546 5.55045 31.3542 4.6875 31.3542C3.82456 31.3542 3.125 30.6546 3.125 29.7917C3.125 28.9287 3.82456 28.2292 4.6875 28.2292C5.55045 28.2292 6.25 28.9287 6.25 29.7917ZM6.25 23.5417C6.25 24.4046 5.55045 25.1042 4.6875 25.1042C3.82456 25.1042 3.125 24.4046 3.125 23.5417C3.125 22.6787 3.82456 21.9792 4.6875 21.9792C5.55045 21.9792 6.25 22.6787 6.25 23.5417ZM6.25 17.2917C6.25 18.1546 5.55045 18.8542 4.6875 18.8542C3.82456 18.8542 3.125 18.1546 3.125 17.2917C3.125 16.4287 3.82456 15.7292 4.6875 15.7292C5.55045 15.7292 6.25 16.4287 6.25 17.2917ZM6.25 11.0417C6.25 11.9046 5.55045 12.6042 4.6875 12.6042C3.82456 12.6042 3.125 11.9046 3.125 11.0417C3.125 10.1787 3.82456 9.47917 4.6875 9.47917C5.55045 9.47917 6.25 10.1787 6.25 11.0417ZM4.6875 3.125C5.55045 3.125 6.25 3.82455 6.25 4.6875V4.79167C6.25 5.65461 5.55045 6.35417 4.6875 6.35417C3.82456 6.35417 3.125 5.65461 3.125 4.79167V4.6875C3.125 3.82456 3.82456 3.125 4.6875 3.125ZM6.25 48.5417C6.25 49.4046 5.55045 50.1042 4.6875 50.1042C3.82456 50.1042 3.125 49.4046 3.125 48.5417C3.125 47.6787 3.82456 46.9792 4.6875 46.9792C5.55045 46.9792 6.25 47.6787 6.25 48.5417ZM43.75 4.6875C43.75 3.82456 44.4496 3.125 45.3125 3.125C46.1754 3.125 46.875 3.82455 46.875 4.6875V4.79167C46.875 5.65461 46.1754 6.35417 45.3125 6.35417C44.4496 6.35417 43.75 5.65461 43.75 4.79167V4.6875ZM43.75 42.2917C43.75 41.4287 44.4496 40.7292 45.3125 40.7292C46.1754 40.7292 46.875 41.4287 46.875 42.2917C46.875 43.1546 46.1754 43.8542 45.3125 43.8542C44.4496 43.8542 43.75 43.1546 43.75 42.2917ZM45.3125 37.6042C44.4496 37.6042 43.75 36.9046 43.75 36.0417C43.75 35.1787 44.4496 34.4792 45.3125 34.4792C46.1754 34.4792 46.875 35.1787 46.875 36.0417C46.875 36.9046 46.1754 37.6042 45.3125 37.6042ZM45.3125 31.3542C44.4496 31.3542 43.75 30.6546 43.75 29.7917C43.75 28.9287 44.4496 28.2292 45.3125 28.2292C46.1754 28.2292 46.875 28.9287 46.875 29.7917C46.875 30.6546 46.1754 31.3542 45.3125 31.3542ZM45.3125 25.1042C44.4496 25.1042 43.75 24.4046 43.75 23.5417C43.75 22.6787 44.4496 21.9792 45.3125 21.9792C46.1754 21.9792 46.875 22.6787 46.875 23.5417C46.875 24.4046 46.1754 25.1042 45.3125 25.1042ZM45.3125 18.8542C44.4496 18.8542 43.75 18.1546 43.75 17.2917C43.75 16.4287 44.4496 15.7292 45.3125 15.7292C46.1754 15.7292 46.875 16.4287 46.875 17.2917C46.875 18.1546 46.1754 18.8542 45.3125 18.8542ZM45.3125 12.6042C44.4496 12.6042 43.75 11.9046 43.75 11.0417C43.75 10.1787 44.4496 9.47917 45.3125 9.47917C46.1754 9.47917 46.875 10.1787 46.875 11.0417C46.875 11.9046 46.1754 12.6042 45.3125 12.6042ZM45.3125 50.1042C44.4496 50.1042 43.75 49.4046 43.75 48.5417C43.75 47.6787 44.4496 46.9792 45.3125 46.9792C46.1754 46.9792 46.875 47.6787 46.875 48.5417C46.875 49.4046 46.1754 50.1042 45.3125 50.1042Z" fill="#7D6FD2"/>
<path d="M33.2538 29.9507C32.514 29.8855 31.771 30.0319 31.1107 30.3728C30.1511 30.8684 28.794 31.0057 28.1011 30.1774L27.7873 29.8024C27.1952 29.0946 27.1952 28.0642 27.7874 27.3564L32.004 22.3163C32.1169 22.1844 32.2025 22.0312 32.256 21.8658C32.3094 21.7004 32.3297 21.526 32.3155 21.3527C32.3013 21.1794 32.253 21.0106 32.1734 20.8561C32.0937 20.7017 31.9843 20.5646 31.8515 20.4528C31.7187 20.341 31.5651 20.2568 31.3996 20.2049C31.2342 20.1531 31.0601 20.1347 30.8874 20.1508C30.7148 20.1669 30.5471 20.2171 30.3939 20.2987C30.2408 20.3802 30.1053 20.4914 29.9953 20.6258L26.5868 24.7002C25.7873 25.6558 24.3181 25.6558 23.5187 24.7001L20.1081 20.6225C19.9981 20.4881 19.8626 20.3769 19.7094 20.2954C19.5563 20.2138 19.3886 20.1636 19.216 20.1475C19.0433 20.1314 18.8692 20.1498 18.7037 20.2016C18.5383 20.2535 18.3847 20.3377 18.2519 20.4495C18.119 20.5613 18.0097 20.6984 17.93 20.8528C17.8504 21.0073 17.8021 21.1761 17.7879 21.3494C17.7737 21.5227 17.7939 21.6971 17.8474 21.8625C17.9009 22.0279 17.9865 22.1811 18.0994 22.3131L22.317 27.3544C22.9101 28.0634 22.9101 29.0954 22.3169 29.8044L22.1751 29.974C21.3975 30.9033 19.8605 30.7423 18.7479 30.2625C17.9814 29.9319 17.1299 29.8545 16.3167 30.0415C15.5035 30.2285 14.7707 30.6702 14.2243 31.3026C13.6779 31.9351 13.3464 32.7255 13.2776 33.5594C13.2088 34.3934 13.4063 35.2277 13.8416 35.9417C14.2769 36.6556 14.9274 37.212 15.6989 37.5306C16.4704 37.8491 17.323 37.9131 18.1332 37.7134C18.9434 37.5137 19.6693 37.0606 20.2057 36.4197L20.2087 36.4159L23.5192 32.4588C24.3186 31.5032 25.7877 31.5032 26.5872 32.4588L29.8952 36.413L29.8981 36.4168C30.3139 36.9138 30.8455 37.3003 31.4458 37.5421C32.0461 37.7838 32.6966 37.8734 33.3396 37.8027C33.9826 37.7321 34.5984 37.5035 35.1323 37.1372C35.6662 36.7708 36.1018 36.2781 36.4004 35.7025C36.6991 35.127 36.8517 34.4865 36.8446 33.8377C36.8375 33.1889 36.671 32.5519 36.3598 31.9831C36.0486 31.4143 35.6024 30.9312 35.0606 30.5767C34.5188 30.2222 33.8983 30.0072 33.2538 29.9507ZM16.3497 34.8913C16.1509 34.7241 16.0061 34.5015 15.9334 34.2518C15.8608 34.002 15.8637 33.7362 15.9417 33.4881C16.0197 33.24 16.1693 33.0206 16.3717 32.8578C16.574 32.695 16.8199 32.596 17.0784 32.5734C17.1171 32.5701 17.156 32.5684 17.1949 32.5684C17.4443 32.5688 17.6884 32.6406 17.8986 32.7752C18.1087 32.9099 18.2762 33.1019 18.3814 33.3287C18.4866 33.5556 18.5251 33.8078 18.4925 34.0558C18.4598 34.3037 18.3572 34.5372 18.1969 34.7289C17.9732 34.9958 17.6531 35.1628 17.3068 35.1932C16.9605 35.2236 16.6163 35.1151 16.3497 34.8913ZM33.7548 34.8883C33.7548 34.8883 33.7549 34.8884 33.7548 34.8885C33.5562 35.0556 33.3127 35.1599 33.055 35.1883C32.7973 35.2166 32.5369 35.1677 32.3068 35.0476C32.0768 34.9276 31.8874 34.7418 31.7627 34.5138C31.6379 34.2858 31.5833 34.0258 31.6059 33.7667C31.6284 33.5076 31.7271 33.261 31.8894 33.0581C32.0516 32.8552 32.2703 32.7052 32.5176 32.6269C32.7649 32.5487 33.0297 32.5457 33.2787 32.6184C33.5277 32.6912 33.7496 32.8363 33.9163 33.0355C34.1392 33.303 34.2474 33.6482 34.217 33.9954C34.1867 34.3426 34.0205 34.6636 33.7547 34.8882C33.7546 34.8882 33.7547 34.8883 33.7548 34.8883Z" fill="white"/>
</svg>
