<svg width="169" height="131" viewBox="0 0 169 131" fill="none" xmlns="http://www.w3.org/2000/svg">
<path d="M56.3714 0.601074C25.7201 0.601074 0 25.0169 0 55.1352C0 85.2537 25.7201 107.982 56.3714 105.971C85.8956 104.033 109.045 79.7003 109.045 51.5575C109.045 23.4152 85.8956 0.601074 56.3714 0.601074ZM56.3714 7.05221C65.381 7.01598 72.6109 14.0207 72.6109 22.6973C72.6109 31.3736 65.381 38.5793 56.3714 38.7936C47.2596 39.0104 39.7968 32.0089 39.7968 23.1533C39.7968 14.2977 47.2596 7.08875 56.3714 7.05221ZM60.2386 53.1589C60.2386 55.2251 58.5095 56.9608 56.3714 57.0358C54.2276 57.1112 52.4856 55.4895 52.4856 53.4132C52.4856 51.3371 54.2276 49.6009 56.3714 49.5356C58.5095 49.4704 60.2386 51.0928 60.2386 53.1589ZM24.3601 70.5231C14.8803 70.9279 7.1144 63.9359 7.1144 54.9017C7.1144 45.8677 14.8803 38.3663 24.3601 38.1489C33.7315 37.9341 41.2501 44.9341 41.2501 53.7818C41.2501 62.6296 33.7314 70.1231 24.3601 70.5231ZM56.3714 99.5194C47.2596 100.081 39.7968 93.3615 39.7968 84.5059C39.7968 75.6503 47.2596 68.159 56.3714 67.7779C65.381 67.4009 72.6109 74.1323 72.6109 82.8088C72.6109 91.4854 65.381 98.9645 56.3714 99.5194ZM87.1555 67.8423C78.3905 68.2165 71.2133 61.4829 71.2133 52.7987C71.2133 44.1146 78.3906 36.9103 87.1555 36.7093C95.8239 36.5105 102.781 43.2511 102.781 51.7631C102.781 60.275 95.8239 67.4723 87.1555 67.8423Z" fill="url(#paint0_linear_308_772)"/>
<path d="M57.0442 0.600952C26.3929 0.600952 0.672821 25.0168 0.672821 55.1351C0.672821 85.2536 26.3929 107.982 57.0442 105.97C86.5684 104.033 109.717 79.7001 109.717 51.5574C109.717 23.415 86.5685 0.600952 57.0442 0.600952ZM57.0442 7.05208C66.0538 7.01586 73.2837 14.0206 73.2837 22.6971C73.2837 31.3734 66.0538 38.5792 57.0442 38.7935C47.9324 39.0103 40.4696 32.0088 40.4696 23.1532C40.4696 14.2976 47.9325 7.08862 57.0442 7.05208ZM60.9114 53.1588C60.9114 55.225 59.1823 56.9606 57.0442 57.0357C54.9004 57.1111 53.1584 55.4893 53.1584 53.4131C53.1584 51.337 54.9004 49.6008 57.0442 49.5355C59.1823 49.4703 60.9114 51.0926 60.9114 53.1588ZM25.0329 70.523C15.5531 70.9277 7.78722 63.9358 7.78722 54.9016C7.78722 45.8676 15.5531 38.3661 25.0329 38.1488C34.4043 37.934 41.9229 44.934 41.9229 53.7817C41.9229 62.6295 34.4043 70.123 25.0329 70.523ZM57.0442 99.5193C47.9324 100.081 40.4696 93.3614 40.4696 84.5058C40.4696 75.6501 47.9324 68.1589 57.0442 67.7778C66.0538 67.4008 73.2837 74.1322 73.2837 82.8087C73.2838 91.4853 66.0539 98.9644 57.0442 99.5193ZM87.8283 67.8422C79.0634 68.2164 71.8861 61.4828 71.8861 52.7986C71.8861 44.1145 79.0634 36.9101 87.8283 36.7092C96.4968 36.5104 103.454 43.251 103.454 51.7629C103.454 60.2749 96.4968 67.4721 87.8283 67.8422Z" fill="url(#paint1_linear_308_772)"/>
<path d="M91.194 52.1653C91.194 70.411 76.0859 86.0153 57.0444 87.0404C37.5401 88.0903 21.3776 73.5121 21.3776 54.4559C21.3776 35.3997 37.5401 19.761 57.0444 19.5311C76.086 19.3066 91.194 33.9196 91.194 52.1653Z" fill="url(#paint2_linear_308_772)"/>
<path d="M85.8008 52.3423C85.8008 67.7065 73.0545 80.8046 57.0444 81.6123C40.7084 82.4364 27.2197 70.1992 27.2197 54.2642C27.2197 38.3293 40.7084 25.2069 57.0444 24.9591C73.0545 24.7163 85.8008 36.9781 85.8008 52.3423Z" fill="url(#paint3_linear_308_772)"/>
<path d="M96.2425 52.1653C96.2425 70.411 81.1344 86.0153 62.0928 87.0404C42.5886 88.0903 26.4261 73.5121 26.4261 54.4559C26.4261 35.3997 42.5886 19.761 62.0928 19.5311C81.1344 19.3066 96.2425 33.9196 96.2425 52.1653Z" fill="url(#paint4_linear_308_772)"/>
<path d="M90.8492 52.3423C90.8492 67.7065 78.1029 80.8046 62.0928 81.6123C45.7569 82.4364 32.2681 70.1992 32.2681 54.2642C32.2681 38.3293 45.7568 25.2069 62.0928 24.9591C78.1029 24.7163 90.8492 36.9781 90.8492 52.3423Z" fill="url(#paint5_linear_308_772)"/>
<path d="M61.1956 0.601074C30.5443 0.601074 4.82422 25.0169 4.82422 55.1352C4.82422 85.2537 30.5443 107.982 61.1956 105.971C90.7197 104.033 113.869 79.7003 113.869 51.5575C113.869 23.4152 90.7198 0.601074 61.1956 0.601074ZM61.1956 7.05221C70.2052 7.01598 77.435 14.0207 77.435 22.6973C77.435 31.3736 70.2052 38.5793 61.1956 38.7936C52.0838 39.0104 44.6209 32.0089 44.6209 23.1533C44.6209 14.2977 52.0838 7.08875 61.1956 7.05221ZM65.0627 53.1589C65.0627 55.2251 63.3336 56.9608 61.1956 57.0358C59.0518 57.1112 57.3097 55.4895 57.3097 53.4132C57.3097 51.3371 59.0518 49.6009 61.1956 49.5356C63.3336 49.4704 65.0627 51.0928 65.0627 53.1589ZM29.1843 70.5231C19.7044 70.9279 11.9386 63.9359 11.9386 54.9017C11.9386 45.8677 19.7045 38.3663 29.1843 38.1489C38.5557 37.9341 46.0743 44.9341 46.0743 53.7818C46.0742 62.6296 38.5556 70.1231 29.1843 70.5231ZM61.1956 99.5194C52.0838 100.081 44.6209 93.3615 44.6209 84.5059C44.6209 75.6503 52.0837 68.159 61.1956 67.7779C70.2052 67.4009 77.435 74.1323 77.435 82.8088C77.4351 91.4854 70.2052 98.9645 61.1956 99.5194ZM91.9796 67.8423C83.2147 68.2165 76.0375 61.4829 76.0375 52.7987C76.0375 44.1146 83.2147 36.9103 91.9796 36.7093C100.648 36.5105 107.605 43.2511 107.605 51.7631C107.605 60.275 100.648 67.4723 91.9796 67.8423Z" fill="url(#paint6_linear_308_772)"/>
<path d="M62.0928 0.600952C31.4414 0.600952 5.72134 25.0168 5.72134 55.1351C5.72134 85.2536 31.4414 107.982 62.0928 105.97C91.617 104.033 114.766 79.7001 114.766 51.5574C114.766 23.415 91.6171 0.600952 62.0928 0.600952ZM62.0928 7.05208C71.1023 7.01586 78.3322 14.0206 78.3322 22.6971C78.3322 31.3734 71.1024 38.5792 62.0928 38.7935C52.9809 39.0103 45.518 32.0088 45.518 23.1532C45.5181 14.2976 52.981 7.08862 62.0928 7.05208ZM65.9599 53.1588C65.9599 55.225 64.2308 56.9606 62.0928 57.0357C59.949 57.1111 58.2069 55.4893 58.2069 53.4131C58.2069 51.337 59.949 49.6008 62.0928 49.5355C64.2309 49.4703 65.9599 51.0926 65.9599 53.1588ZM30.0814 70.523C20.6015 70.9277 12.8357 63.9358 12.8357 54.9016C12.8357 45.8676 20.6016 38.3661 30.0814 38.1488C39.4528 37.934 46.9714 44.934 46.9714 53.7817C46.9714 62.6295 39.4528 70.123 30.0814 70.523ZM62.0928 99.5193C52.9809 100.081 45.518 93.3614 45.518 84.5058C45.518 75.6501 52.9809 68.1589 62.0928 67.7778C71.1023 67.4008 78.3322 74.1322 78.3322 82.8087C78.3322 91.4853 71.1024 98.9644 62.0928 99.5193ZM92.8768 67.8422C84.112 68.2164 76.9347 61.4828 76.9347 52.7986C76.9347 44.1145 84.112 36.9101 92.8768 36.7092C101.545 36.5104 108.503 43.251 108.503 51.7629C108.503 60.2749 101.545 67.4721 92.8768 67.8422Z" fill="url(#paint7_linear_308_772)"/>
<path opacity="0.3" d="M78.3234 82.4683C78.3259 82.5819 78.3322 82.6944 78.3322 82.8086C78.3322 91.4853 71.1024 98.9644 62.0928 99.5193C52.9809 100.081 45.518 93.3614 45.518 84.5057C45.518 78.0477 49.4977 72.3087 55.1952 69.5307C54.2307 68.158 53.3938 66.6276 52.7724 64.9187C49.5343 56.0125 55.7111 52.4095 53.3726 43.8059C50.2098 32.1698 37.1375 32.2733 32.1809 21.2896C30.924 18.5042 30.1196 14.8328 30.753 9.97327C15.7302 19.8251 5.72134 36.4383 5.72134 55.1352C5.72134 85.2537 31.4414 107.982 62.0928 105.971C77.5896 104.954 91.3035 97.7833 100.821 87.2202C97.6062 85.5308 94.5892 84.5251 91.8971 83.9202C86.8587 82.788 82.7328 82.9952 78.3234 82.4683ZM30.0814 70.523C20.6015 70.9277 12.8357 63.9358 12.8357 54.9016C12.8357 45.8676 20.6016 38.3661 30.0814 38.1488C39.4528 37.934 46.9714 44.934 46.9714 53.7817C46.9714 62.6295 39.4528 70.123 30.0814 70.523Z" fill="url(#paint8_linear_308_772)"/>
<path d="M163.61 120.785L37.1043 130.168C34.8406 130.335 33 128.552 33 126.183V31.2712C33 28.9022 34.8406 26.9817 37.1043 26.9817H163.61C165.475 26.9817 166.983 28.7178 166.983 30.8593V116.657C166.983 118.799 165.475 120.647 163.61 120.785Z" fill="url(#paint9_linear_308_772)"/>
<path d="M165.627 120.785L39.1215 130.168C36.8577 130.335 35.0172 128.552 35.0172 126.183V31.2712C35.0172 28.9022 36.8577 26.9817 39.1215 26.9817L165.627 26.9817C167.492 26.9817 169 28.7178 169 30.8593V116.657C169 118.799 167.492 120.647 165.627 120.785Z" fill="url(#paint10_linear_308_772)"/>
<path d="M161.686 114.736L43.8593 122.886C42.0171 123.014 40.5201 121.549 40.5201 119.615V36.5204C40.5201 34.5864 42.0171 33.0121 43.8593 33.0041L161.686 32.4923C163.224 32.4856 164.469 33.9082 164.469 35.6698V111.354C164.469 113.116 163.224 114.63 161.686 114.736Z" fill="#D8DEE8"/>
<path d="M106.842 29.5776C106.842 30.4595 106.191 31.1765 105.387 31.1791C104.582 31.1817 103.929 30.4672 103.929 29.5833C103.929 28.6994 104.582 27.9824 105.387 27.9818C106.191 27.9813 106.842 28.6957 106.842 29.5776Z" fill="white"/>
<path opacity="0.48" d="M135.148 94.7543C125.395 89.2474 117.727 96.2253 110.326 89.3405C105.84 85.1664 108.042 82.0539 102.522 75.8163C96.4071 68.9077 92.4262 71.23 86.2811 65.0122C78.511 57.1502 82.3972 51.0333 75.7043 45.3886C67.5848 38.5408 58.8284 44.8789 51.0992 38.3116C47.7655 35.4791 45.9365 31.3611 44.9813 26.9817H37.4185C36.0933 26.9817 35.0171 28.1089 35.0171 29.4995V127.883C35.0171 129.274 36.0933 130.321 37.4185 130.222L166.348 120.618C166.981 120.571 167.542 120.183 167.902 119.621C158.464 119.26 152.666 115.939 148.96 112.507C141.709 105.792 142.967 99.1694 135.148 94.7543Z" fill="white"/>
<path d="M59.8048 103.303L52.2125 103.657C50.3965 103.741 48.9596 105.211 48.9596 106.94V113.2C48.9596 115.776 51.323 116.843 53.1386 116.732L59.8245 115.66C61.5997 115.551 63.02 114.085 63.02 112.386L64.1708 106.285C64.1708 104.585 61.5801 103.22 59.8048 103.303Z" fill="url(#paint11_linear_308_772)"/>
<path d="M155.01 98.8852L70.3683 102.827C68.6295 102.907 67.537 104.343 67.537 106.035V112.16C67.537 114.725 69.3566 115.602 70.964 115.639C71.0707 115.643 71.112 115.701 71.2213 115.695L122.151 111.845C122.181 111.844 122.173 111.838 122.202 111.836L155.016 109.821C156.407 109.736 157.512 108.447 157.512 106.943L158.771 101.442C158.771 99.9378 156.401 98.8207 155.01 98.8852Z" fill="url(#paint12_linear_308_772)"/>
<path d="M61.2359 103.972L53.5652 104.327C51.7498 104.411 50.2321 105.881 50.2321 107.609V113.868C50.2321 115.597 51.7301 116.907 53.5455 116.796L61.2257 116.327C63.0004 116.218 64.4833 114.752 64.4833 113.053V106.899C64.4832 105.2 63.0106 103.889 61.2359 103.972Z" fill="url(#paint13_linear_308_772)"/>
<path d="M158.897 102.154V107.602C158.897 109.107 157.762 110.395 156.372 110.481L71.5743 115.698C69.8361 115.805 68.555 114.52 68.555 112.829V106.705C68.555 105.014 69.8307 103.577 71.5689 103.496L156.442 99.5466C157.833 99.482 158.897 100.65 158.897 102.154Z" fill="#F4F7FA"/>
<path d="M126.656 103.678V109.429C126.656 111.016 125.432 112.381 123.899 112.475L71.593 115.698C69.8371 115.806 68.555 114.508 68.555 112.8V106.613C68.555 104.905 69.8437 103.453 71.5997 103.371L123.969 100.932C125.503 100.86 126.656 102.09 126.656 103.678Z" fill="url(#paint14_linear_308_772)"/>
<path d="M60.6843 109.828L56.5338 107.428C56.3366 107.314 55.9666 107.315 55.7688 107.429C55.5706 107.544 55.3218 107.757 55.3218 107.987V112.902C55.3218 113.132 55.5706 113.341 55.7688 113.451C55.9667 113.56 56.2733 113.553 56.4705 113.434L60.6525 110.918C60.8428 110.802 60.9758 110.593 60.9758 110.369C60.9758 110.144 60.8746 109.938 60.6843 109.828Z" fill="#F4F7FA"/>
<path d="M72.1821 45.8112V91.3183L139.386 89.1756L138.881 45.9924L72.1821 45.8112ZM79.9631 88.1528L74.3404 88.3194L74.339 84.0423L79.9577 83.8943L79.9631 88.1528ZM79.9187 52.9338L74.3286 52.9486L74.3272 48.7211L79.9134 48.7245L79.9187 52.9338ZM88.146 87.8962L83.5425 88.0518L83.5346 83.8044L88.135 83.6657L88.146 87.8962ZM88.0548 52.908L83.4775 52.9252L83.4697 48.7267L88.0439 48.726L88.0548 52.908ZM96.5904 87.647L91.4719 87.7905L91.4586 83.5716L96.5736 83.4441L96.5904 87.647ZM96.4515 52.8858L91.3619 52.898L91.3487 48.7274L96.4349 48.7307L96.4515 52.8858ZM105.041 87.4066L99.9186 87.545L99.8995 83.3533L105.018 83.2304L105.041 87.4066ZM104.855 52.8647L99.7611 52.8763L99.7423 48.7323L104.832 48.7358L104.855 52.8647ZM113.24 87.1506L108.371 87.3079L108.346 83.1425L113.212 83.0024L113.24 87.1506ZM113.009 52.8404L108.167 52.8557L108.142 48.7374L112.982 48.7388L113.009 52.8404ZM121.189 86.9106L116.316 87.0628L116.287 82.9243L121.156 82.7888L121.189 86.9106ZM120.915 52.8179L116.069 52.8325L116.039 48.7406L120.882 48.7423L120.915 52.8179ZM129.399 86.6769L124.78 86.8219L124.745 82.7101L129.361 82.5812L129.399 86.6769ZM129.081 52.7988L124.487 52.8111L124.452 48.7451L129.043 48.7487L129.081 52.7988ZM137.358 86.4476L132.479 86.58L132.439 82.495L137.315 82.3773L137.358 86.4476ZM136.998 52.7779L132.145 52.7894L132.105 48.7497L136.955 48.7525L136.998 52.7779Z" fill="url(#paint15_linear_308_772)"/>
<path d="M101.749 75.1181L101.673 59.4822C101.669 58.4812 102.504 57.851 103.23 58.3051L116.056 66.3308C116.848 66.8269 116.859 68.2619 116.073 68.7317L103.322 76.3545C102.599 76.7869 101.754 76.1245 101.749 75.1181Z" fill="url(#paint16_linear_308_772)"/>
<path d="M73.4546 45.8259V91.3355L140.607 89.1921L140.131 46.0069L73.4546 45.8259ZM81.118 88.1683L75.4947 88.3348L75.4933 84.0576L81.1126 83.9095L81.118 88.1683ZM81.0736 52.9474L75.4829 52.9621L75.4814 48.7345L81.0683 48.7378L81.0736 52.9474ZM89.3019 87.9118L84.6978 88.0673L84.6899 83.8197L89.2908 83.6811L89.3019 87.9118ZM89.2106 52.9216L84.6328 52.9388L84.625 48.7401L89.1997 48.7394L89.2106 52.9216ZM97.7472 87.6625L92.6281 87.8059L92.6148 83.5868L97.7305 83.4593L97.7472 87.6625ZM97.6083 52.8994L92.5181 52.9116L92.5049 48.7407L97.5916 48.7441L97.6083 52.8994ZM106.198 87.4221L101.076 87.5604L101.057 83.3685L106.176 83.2456L106.198 87.4221ZM106.012 52.8783L100.918 52.8899L100.899 48.7456L105.99 48.7491L106.012 52.8783ZM114.399 87.1661L109.529 87.3234L109.504 83.1578L114.371 83.0177L114.399 87.1661ZM114.168 52.854L109.325 52.8693L109.3 48.7508L114.14 48.7522L114.168 52.854ZM122.348 86.9261L117.476 87.0782L117.446 82.9396L122.315 82.8042L122.348 86.9261ZM122.074 52.8315L117.228 52.8461L117.198 48.7539L122.041 48.7556L122.074 52.8315ZM130.56 86.6924L125.94 86.8374L125.905 82.7254L130.521 82.5965L130.56 86.6924ZM130.241 52.8124L125.647 52.8247L125.611 48.7585L130.203 48.762L130.241 52.8124ZM138.52 86.463L133.64 86.5955L133.6 82.5102L138.476 82.3925L138.52 86.463ZM138.159 52.7914L133.306 52.8029L133.266 48.763L138.116 48.7658L138.159 52.7914Z" fill="url(#paint17_linear_308_772)"/>
<path d="M102.907 75.1329L102.831 59.4961C102.826 58.495 103.661 57.8648 104.387 58.319L117.214 66.3451C118.007 66.8411 118.018 68.2763 117.232 68.7461L104.48 76.3692C103.756 76.8018 102.912 76.1395 102.907 75.1329Z" fill="white"/>
<defs>
<linearGradient id="paint0_linear_308_772" x1="97.2618" y1="90.8924" x2="41.9139" y2="40.0256" gradientUnits="userSpaceOnUse">
<stop offset="0.0036" stop-color="#F36F56"/>
<stop offset="1" stop-color="#FFC444"/>
</linearGradient>
<linearGradient id="paint1_linear_308_772" x1="97.9347" y1="90.8923" x2="42.5868" y2="40.0255" gradientUnits="userSpaceOnUse">
<stop stop-color="#FFC444"/>
<stop offset="0.9964" stop-color="#F36F56"/>
</linearGradient>
<linearGradient id="paint2_linear_308_772" x1="72.5448" y1="70.6646" x2="39.5602" y2="33.8367" gradientUnits="userSpaceOnUse">
<stop stop-color="#444B8C"/>
<stop offset="0.9964" stop-color="#26264F"/>
</linearGradient>
<linearGradient id="paint3_linear_308_772" x1="48.5128" y1="30.1456" x2="74.8912" y2="110.228" gradientUnits="userSpaceOnUse">
<stop offset="0.0036" stop-color="#26264F"/>
<stop offset="1" stop-color="#444B8C"/>
</linearGradient>
<linearGradient id="paint4_linear_308_772" x1="51.8019" y1="25.7131" x2="83.2376" y2="121.149" gradientUnits="userSpaceOnUse">
<stop stop-color="#444B8C"/>
<stop offset="0.9964" stop-color="#26264F"/>
</linearGradient>
<linearGradient id="paint5_linear_308_772" x1="53.5612" y1="30.1456" x2="79.9397" y2="110.228" gradientUnits="userSpaceOnUse">
<stop offset="0.0036" stop-color="#26264F"/>
<stop offset="1" stop-color="#444B8C"/>
</linearGradient>
<linearGradient id="paint6_linear_308_772" x1="44.4534" y1="10.2549" x2="93.5375" y2="159.27" gradientUnits="userSpaceOnUse">
<stop offset="0.0036" stop-color="#F36F56"/>
<stop offset="1" stop-color="#FFC444"/>
</linearGradient>
<linearGradient id="paint7_linear_308_772" x1="45.3505" y1="10.2547" x2="94.4347" y2="159.27" gradientUnits="userSpaceOnUse">
<stop stop-color="#FFC444"/>
<stop offset="0.9964" stop-color="#F36F56"/>
</linearGradient>
<linearGradient id="paint8_linear_308_772" x1="32.2565" y1="14.5672" x2="81.3439" y2="163.592" gradientUnits="userSpaceOnUse">
<stop stop-color="#FFC444"/>
<stop offset="0.9964" stop-color="#F36F56"/>
</linearGradient>
<linearGradient id="paint9_linear_308_772" x1="97.1975" y1="75.1022" x2="82.5991" y2="81.3774" gradientUnits="userSpaceOnUse">
<stop stop-color="#40447E"/>
<stop offset="0.9964" stop-color="#3C3B6B"/>
</linearGradient>
<linearGradient id="paint10_linear_308_772" x1="35.0171" y1="78.5801" x2="169" y2="78.5801" gradientUnits="userSpaceOnUse">
<stop stop-color="#40447E"/>
<stop offset="0.9964" stop-color="#3C3B6B"/>
</linearGradient>
<linearGradient id="paint11_linear_308_772" x1="48.9596" y1="110.019" x2="64.1708" y2="110.019" gradientUnits="userSpaceOnUse">
<stop stop-color="#444B8C"/>
<stop offset="0.9964" stop-color="#3E4177"/>
</linearGradient>
<linearGradient id="paint12_linear_308_772" x1="67.537" y1="107.289" x2="158.771" y2="107.289" gradientUnits="userSpaceOnUse">
<stop stop-color="#444B8C"/>
<stop offset="0.9964" stop-color="#3E4177"/>
</linearGradient>
<linearGradient id="paint13_linear_308_772" x1="50.232" y1="110.385" x2="64.4832" y2="110.385" gradientUnits="userSpaceOnUse">
<stop stop-color="#AA80F9"/>
<stop offset="0.9964" stop-color="#6165D7"/>
</linearGradient>
<linearGradient id="paint14_linear_308_772" x1="68.555" y1="108.316" x2="126.656" y2="108.316" gradientUnits="userSpaceOnUse">
<stop stop-color="#AA80F9"/>
<stop offset="0.9964" stop-color="#6165D7"/>
</linearGradient>
<linearGradient id="paint15_linear_308_772" x1="87.7295" y1="117.279" x2="38.5206" y2="259.418" gradientUnits="userSpaceOnUse">
<stop stop-color="#444B8C"/>
<stop offset="0.9964" stop-color="#3E4177"/>
</linearGradient>
<linearGradient id="paint16_linear_308_772" x1="101.673" y1="67.322" x2="116.656" y2="67.322" gradientUnits="userSpaceOnUse">
<stop stop-color="#444B8C"/>
<stop offset="0.9964" stop-color="#3E4177"/>
</linearGradient>
<linearGradient id="paint17_linear_308_772" x1="88.9789" y1="117.287" x2="39.7736" y2="259.415" gradientUnits="userSpaceOnUse">
<stop stop-color="#AA80F9"/>
<stop offset="0.9964" stop-color="#6165D7"/>
</linearGradient>
</defs>
</svg>
