<svg width="36" height="36" viewBox="0 0 36 36" fill="none" xmlns="http://www.w3.org/2000/svg">
<rect width="36" height="36" rx="8" fill="#7D6FD2"/>
<path d="M25.425 17.2666C25.425 21.3416 22.4667 25.1583 18.425 26.275C18.15 26.35 17.85 26.35 17.575 26.275C13.5333 25.1583 10.575 21.3416 10.575 17.2666V13.6083C10.575 12.925 11.0917 12.15 11.7334 11.8916L16.375 9.99166C17.4167 9.56666 18.5917 9.56666 19.6333 9.99166L24.275 11.8916C24.9083 12.15 25.4334 12.925 25.4334 13.6083L25.425 17.2666Z" stroke="white" stroke-width="1.5" stroke-linecap="round" stroke-linejoin="round"/>
<path d="M18 18.4166C18.9205 18.4166 19.6667 17.6705 19.6667 16.75C19.6667 15.8295 18.9205 15.0833 18 15.0833C17.0795 15.0833 16.3333 15.8295 16.3333 16.75C16.3333 17.6705 17.0795 18.4166 18 18.4166Z" stroke="white" stroke-width="1.5" stroke-miterlimit="10" stroke-linecap="round" stroke-linejoin="round"/>
<path d="M18 18.4166V20.9166" stroke="white" stroke-width="1.5" stroke-miterlimit="10" stroke-linecap="round" stroke-linejoin="round"/>
</svg>
