<svg width="23" height="23" viewBox="0 0 23 23" fill="none" xmlns="http://www.w3.org/2000/svg">
<path d="M19.8143 5.29421C18.3384 5.14754 16.8626 5.03754 15.3776 4.95504V4.94587L15.1759 3.75421C15.0384 2.91087 14.8368 1.64587 12.6918 1.64587H10.2901C8.15427 1.64587 7.9526 2.85587 7.80594 3.74504L7.61344 4.91837C6.76094 4.97337 5.90844 5.02837 5.05594 5.11087L3.18594 5.29421C2.80094 5.33087 2.52594 5.67004 2.5626 6.04587C2.59927 6.42171 2.92927 6.69671 3.31427 6.66004L5.18427 6.47671C9.9876 6.00004 14.8276 6.18337 19.6859 6.66921C19.7134 6.66921 19.7318 6.66921 19.7593 6.66921C20.1076 6.66921 20.4101 6.40337 20.4468 6.04587C20.4743 5.67004 20.1993 5.33087 19.8143 5.29421Z" fill="#EB3939"/>
<path d="M18.1276 7.96163C17.9076 7.73246 17.6051 7.60413 17.2934 7.60413H5.70676C5.3951 7.60413 5.08343 7.73246 4.8726 7.96163C4.66176 8.19079 4.5426 8.50246 4.56093 8.82329L5.12926 18.2283C5.2301 19.6216 5.35843 21.3633 8.5576 21.3633H14.4426C17.6418 21.3633 17.7701 19.6308 17.8709 18.2283L18.4393 8.83246C18.4576 8.50246 18.3384 8.19079 18.1276 7.96163ZM13.0218 16.7708H9.96926C9.59343 16.7708 9.28176 16.4591 9.28176 16.0833C9.28176 15.7075 9.59343 15.3958 9.96926 15.3958H13.0218C13.3976 15.3958 13.7093 15.7075 13.7093 16.0833C13.7093 16.4591 13.3976 16.7708 13.0218 16.7708ZM13.7918 13.1041H9.20843C8.8326 13.1041 8.52093 12.7925 8.52093 12.4166C8.52093 12.0408 8.8326 11.7291 9.20843 11.7291H13.7918C14.1676 11.7291 14.4793 12.0408 14.4793 12.4166C14.4793 12.7925 14.1676 13.1041 13.7918 13.1041Z" fill="#EB3939"/>
</svg>
