<svg width="24" height="24" viewBox="0 0 24 24" fill="none" xmlns="http://www.w3.org/2000/svg">
<path d="M21 15V19C21 19.5304 20.7893 20.0391 20.4142 20.4142C20.0391 20.7893 19.5304 21 19 21H5C4.46957 21 3.96086 20.7893 3.58579 20.4142C3.21071 20.0391 3 19.5304 3 19V15" stroke="#171717" stroke-width="1.5" stroke-linecap="round" stroke-linejoin="round"/>
<path d="M14.2952 5.20579L8.06722 11.4338C7.82722 11.6738 7.59922 12.1418 7.55122 12.4778L7.21523 14.8538C7.09523 15.7178 7.69522 16.3178 8.55922 16.1978L10.9352 15.8618C11.2712 15.8138 11.7392 15.5858 11.9792 15.3458L18.2072 9.11779C19.2752 8.04979 19.7912 6.80179 18.2072 5.21779C16.6232 3.62179 15.3752 4.12579 14.2952 5.20579Z" stroke="#171717" stroke-width="1.5" stroke-miterlimit="10" stroke-linecap="round" stroke-linejoin="round"/>
<path d="M13.4072 6.09375C13.9352 7.97775 15.4112 9.46575 17.3072 9.99375" stroke="#171717" stroke-width="1.5" stroke-miterlimit="10" stroke-linecap="round" stroke-linejoin="round"/>
</svg>
