<svg width="164" height="164" viewBox="0 0 164 164" fill="none" xmlns="http://www.w3.org/2000/svg">
<path fill-rule="evenodd" clip-rule="evenodd" d="M113.847 27.1079C115.884 28.2731 117.744 29.6698 119.401 31.253C121.091 32.8676 122.573 34.6777 123.819 36.6369L129.564 34.9535C130.495 34.6809 131.452 34.8134 132.244 35.2464C133.038 35.6805 133.668 36.4173 133.941 37.3516L136.454 45.928C136.726 46.8583 136.594 47.8152 136.161 48.6073C135.727 49.4011 134.99 50.0311 134.056 50.3048L128.323 51.9845C128.326 52.9986 128.275 54.0173 128.169 55.0369C128.036 56.3126 127.815 57.5971 127.503 58.8828C127.188 60.1741 126.795 61.4161 126.33 62.605C125.956 63.559 125.532 64.4876 125.063 65.3889L129.405 69.5337L129.406 69.5318L129.452 69.5802C130.111 70.2436 130.454 71.1139 130.474 71.9915C130.495 72.8936 130.173 73.8043 129.504 74.5056L129.485 74.5249L129.487 74.5265L129.45 74.5615L123.333 80.9698C122.661 81.6729 121.763 82.0377 120.856 82.0587C119.954 82.0796 119.043 81.7579 118.342 81.0883L114.013 76.9556C112.008 78.1222 109.862 79.0487 107.619 79.707C105.419 80.3529 103.124 80.7392 100.778 80.8389L99.3661 86.6445C99.1361 87.5904 98.5423 88.3549 97.7714 88.8242C96.9994 89.294 96.0479 89.4709 95.1036 89.2413L86.5052 87.1501C86.4391 87.1397 86.3748 87.1233 86.313 87.1015C85.4166 86.8539 84.6919 86.2763 84.2403 85.5347C83.7874 84.7904 83.6065 83.8792 83.7998 82.9688C83.8089 82.9029 83.824 82.8392 83.8447 82.7777L85.2357 77.0586C83.1985 75.8931 81.3379 74.4967 79.6808 72.913C77.9912 71.2986 76.5096 69.4883 75.2637 67.5293L69.518 69.2128C68.5877 69.4853 67.6308 69.3528 66.8387 68.9198C66.0447 68.4857 65.4151 67.7489 65.1412 66.8146L62.6286 58.2382C62.356 57.3079 62.4885 56.351 62.9215 55.5589C63.3559 54.7641 64.0916 54.1343 65.0224 53.8614L65.0714 53.8483L70.7598 52.1815C70.7566 51.1673 70.8071 50.1486 70.9136 49.1288C71.0466 47.8531 71.2673 46.5688 71.5799 45.2832C71.8939 43.9919 72.2874 42.7495 72.7532 41.5607C73.1268 40.607 73.5502 39.6783 74.0197 38.7773L69.6782 34.6325L69.6763 34.6344L69.6309 34.586C68.9713 33.9226 68.6288 33.0523 68.6084 32.1744C68.5874 31.2723 68.9095 30.3617 69.5788 29.6604L69.5973 29.641L69.5957 29.6394L69.6325 29.6045L75.7685 23.1771L75.7666 23.1752L75.8148 23.1298C76.4784 22.4702 77.3485 22.1277 78.2264 22.1073C79.1284 22.0863 80.0391 22.4083 80.7404 23.0776L80.7597 23.0962L80.7614 23.0946L80.7963 23.1314L85.0693 27.2106C87.0737 26.044 89.2208 25.1175 91.4633 24.4592C93.6637 23.8133 95.9586 23.4271 98.3039 23.3274L99.6951 17.6069C99.7054 17.5408 99.7217 17.4765 99.7435 17.415C99.9911 16.5183 100.569 15.7936 101.31 15.342C102.055 14.8889 102.966 14.7082 103.876 14.9018C103.942 14.9109 104.006 14.926 104.067 14.9464L112.661 17.0368C113.607 17.2669 114.372 17.8606 114.841 18.6315C115.311 19.4035 115.488 20.355 115.259 21.2993L113.847 27.1079ZM113.894 43.3481C111.657 39.674 108.02 36.8536 103.514 35.7572C99.0051 34.6607 94.4792 35.4953 90.8061 37.7312C87.132 39.9675 84.3116 43.6043 83.2154 48.1112C82.119 52.6196 82.9536 57.1456 85.1894 60.8186C87.4261 64.4928 91.0628 67.3135 95.5694 68.4093C100.078 69.506 104.604 68.6711 108.277 66.4353C111.951 64.199 114.771 60.5622 115.868 56.0553C116.964 51.5471 116.129 47.0212 113.894 43.3481Z" fill="#FEFEFE" fill-opacity="0.1"/>
<path fill-rule="evenodd" clip-rule="evenodd" d="M126.452 77.7027L123.333 80.9701L123.325 80.9779C122.655 81.676 121.76 82.0381 120.856 82.059C119.954 82.08 119.043 81.7582 118.342 81.0887L114.013 76.956C112.009 78.1225 109.862 79.0491 107.619 79.7074C105.419 80.3533 103.124 80.7395 100.778 80.8392L99.3664 86.6449C99.1363 87.5908 98.5425 88.3552 97.7716 88.8245C96.9997 89.2944 96.0481 89.4713 95.1039 89.2417L86.5054 87.1505C86.4393 87.14 86.3751 87.1236 86.3132 87.1018C85.4168 86.8543 84.6922 86.2767 84.2406 85.5351C83.7877 84.7908 83.6068 83.8796 83.8 82.9692C83.8092 82.9033 83.8242 82.8396 83.8449 82.778L85.2359 77.0589C83.1987 75.8934 81.3382 74.4971 79.681 72.9133C77.9914 71.299 76.5098 69.4886 75.264 67.5297L69.5182 69.2131C68.588 69.4857 67.631 69.3532 66.8389 68.9201C66.0449 68.486 65.4154 67.7493 65.1415 66.815L62.6288 58.2386C62.3563 57.3083 62.4888 56.3514 62.9218 55.5592C63.3562 54.7644 64.0918 54.1346 65.0227 53.8618L65.0716 53.8486L70.7601 52.1819C70.7568 51.1677 70.8074 50.149 70.9138 49.1292C71.0469 47.8535 71.2676 46.5692 71.5802 45.2836C71.8941 43.9923 72.2876 42.7499 72.7534 41.561C73.1271 40.6074 73.5504 39.6787 74.02 38.7777L69.6784 34.6329L69.6766 34.6348L69.6311 34.5864C68.9715 33.923 68.6291 33.0527 68.6086 32.1748C68.5877 31.2759 68.9075 30.3682 69.5723 29.6678L71.5995 27.544L72.7005 26.3906L87.4209 40.4431C85.4295 42.5126 83.9422 45.1199 83.2149 48.1107C82.1185 52.6192 82.9531 57.1451 85.1889 60.8182C87.4255 64.4923 91.0623 67.313 95.5689 68.4089C100.077 69.5056 104.604 68.6707 108.276 66.4349C109.541 65.6651 110.704 64.7294 111.731 63.6497L126.452 77.7027Z" fill="#FEFEFE" fill-opacity="0.1"/>
<path fill-rule="evenodd" clip-rule="evenodd" d="M99.5414 28.8456C112.375 28.8456 122.779 39.2495 122.779 52.0836C122.779 64.9173 112.375 75.3215 99.5414 75.3215C86.7073 75.3215 76.3034 64.9176 76.3034 52.0836C76.3037 39.2495 86.7076 28.8456 99.5414 28.8456ZM113.894 43.348C111.657 39.6739 108.02 36.8535 103.514 35.7571C99.0051 34.6607 94.4792 35.4953 90.8061 37.7311C87.132 39.9674 84.3116 43.6042 83.2154 48.1111C82.119 52.6195 82.9536 57.1455 85.1894 60.8185C87.4261 64.4927 91.0628 67.3134 95.5694 68.4092C100.078 69.5059 104.604 68.671 108.277 66.4352C111.951 64.1989 114.771 60.5621 115.868 56.0552C116.964 51.547 116.129 47.0211 113.894 43.348Z" fill="#FEFEFE" fill-opacity="0.1"/>
<path fill-rule="evenodd" clip-rule="evenodd" d="M58.9378 65.8138C60.4766 66.7105 61.8846 67.7755 63.1422 68.9775C64.4249 70.2032 65.5552 71.5727 66.5129 73.0527L70.809 71.7942C71.5931 71.5657 72.3995 71.6778 73.0666 72.0428C73.7381 72.41 74.27 73.0309 74.5004 73.8171L74.5138 73.8671L76.4526 80.4851C76.6819 81.27 76.5701 82.0769 76.2048 82.7451C75.8376 83.4166 75.2164 83.9485 74.4305 84.1789L74.381 84.192L70.1456 85.433C70.1421 86.1701 70.1024 86.9095 70.0255 87.6487C69.9212 88.6497 69.7478 89.6582 69.5021 90.6681C69.2551 91.6836 68.9466 92.6585 68.5818 93.5901C68.3109 94.282 68.0058 94.9577 67.6695 95.6157L70.8969 98.6966C71.4907 99.2638 71.799 100.023 71.8167 100.789C71.8342 101.551 71.5627 102.32 70.9974 102.912L66.2043 107.933C65.6372 108.527 64.8781 108.835 64.1118 108.852C63.3503 108.87 62.5813 108.598 61.9894 108.033L58.7563 104.947C57.228 105.82 55.5959 106.517 53.8933 107.017C52.2228 107.507 50.4818 107.807 48.7024 107.897L47.6479 112.232C47.4536 113.031 46.9523 113.677 46.3015 114.073C45.6497 114.469 44.846 114.619 44.0485 114.425L37.3037 112.785C36.5046 112.59 35.8589 112.089 35.4627 111.438C35.066 110.786 34.9165 109.983 35.1103 109.185L36.1654 104.847C34.6265 103.951 33.2183 102.886 31.9604 101.683C30.6777 100.458 29.5474 99.0883 28.59 97.6083L24.2941 98.867C23.51 99.0955 22.7037 98.9834 22.0362 98.6184C21.3651 98.2512 20.8329 97.6303 20.6025 96.8441L20.5891 96.7941L18.6508 90.1786C18.4207 89.3932 18.5325 88.5852 18.8981 87.9164C19.265 87.245 19.8862 86.713 20.6724 86.4827L20.7213 86.4695L24.9572 85.2285C24.9607 84.4912 25.0005 83.7517 25.0774 83.0123C25.1817 82.0113 25.355 81.0033 25.6004 79.9935C25.8475 78.9777 26.1563 78.0025 26.5211 77.0709C26.792 76.3793 27.0968 75.7038 27.4331 75.0458L24.2057 71.9649C23.6116 71.398 23.3036 70.6387 23.2859 69.8723C23.2684 69.1108 23.5399 68.3418 24.1051 67.7497L28.9168 62.7095L28.9149 62.7077C28.9319 62.6907 28.9493 62.6746 28.9671 62.659C29.5259 62.1107 30.2549 61.826 30.9905 61.8088C31.752 61.7911 32.5208 62.0628 33.1129 62.6281L33.1323 62.6466L33.1339 62.645L33.1688 62.6819L36.3457 65.7146C37.8743 64.8413 39.5065 64.1446 41.209 63.6449C42.8795 63.1547 44.6202 62.855 46.3996 62.7649L47.4541 58.4298C47.6485 57.6307 48.15 56.9848 48.8005 56.5889C49.4526 56.1921 50.2563 56.0427 51.0535 56.2365L57.7984 57.8769C58.5977 58.0712 59.2434 58.5725 59.6393 59.2233C60.0361 59.8751 60.1855 60.6788 59.9917 61.4763L58.9378 65.8138ZM58.4948 78.6702C56.7893 75.8686 54.0164 73.7177 50.5805 72.882C47.1429 72.0461 43.6918 72.6823 40.8913 74.387C38.0896 76.0925 35.9388 78.8654 35.1031 82.3013C34.2671 85.7389 34.9034 89.19 36.6081 91.9905C38.3135 94.7921 41.0864 96.943 44.5224 97.7787C47.96 98.6149 51.411 97.9784 54.2116 96.2737C57.0132 94.5682 59.1641 91.7954 59.9998 88.3594C60.836 84.9218 60.1995 81.4708 58.4948 78.6702Z" fill="#FEFEFE" fill-opacity="0.1"/>
<path fill-rule="evenodd" clip-rule="evenodd" d="M58.9378 65.8139C60.4766 66.7105 61.8846 67.7755 63.1423 68.9775C64.4249 70.2032 65.5552 71.5727 66.5129 73.0527L70.809 71.7942C71.5931 71.5658 72.3995 71.6778 73.0666 72.0429C73.7381 72.41 74.27 73.0309 74.5004 73.8172L74.5138 73.8672L76.4526 80.4851C76.6819 81.27 76.5701 82.0769 76.2048 82.7451C75.8376 83.4166 75.2164 83.9485 74.4305 84.1789L74.381 84.192L70.1457 85.4331C70.1422 86.1701 70.1024 86.9095 70.0255 87.6487C69.9212 88.6497 69.7478 89.6582 69.5022 90.6681C69.2551 91.6836 68.9466 92.6585 68.5818 93.5901C68.3109 94.282 68.0058 94.9577 67.6695 95.6158L70.8969 98.6967C71.4907 99.2638 71.799 100.023 71.8167 100.789C71.8342 101.551 71.5627 102.32 70.9975 102.912L68.6079 105.415L56.8278 94.1694C58.329 92.5972 59.4496 90.6224 59.9998 88.3597C60.8357 84.9221 60.1995 81.471 58.4948 78.6705C56.7893 75.8689 54.0164 73.718 50.5805 72.8823C47.1429 72.0464 43.6918 72.6826 40.8913 74.3873C39.9411 74.9655 39.0662 75.6667 38.2918 76.4747L26.5117 65.2292L28.9174 62.7093L28.9155 62.7074C28.9324 62.6905 28.9499 62.6744 28.9676 62.6588C29.5264 62.1104 30.2554 61.8258 30.9911 61.8086C31.7526 61.7908 32.5213 62.0626 33.1135 62.6278L33.1328 62.6464L33.1345 62.6448L33.1694 62.6816L36.3463 65.7144C37.8749 64.8411 39.507 64.1444 41.2095 63.6447C42.8801 63.1544 44.6208 62.8547 46.4002 62.7647L47.4547 58.4296C47.649 57.6304 48.1506 56.9845 48.8011 56.5886C49.4531 56.1919 50.2568 56.0424 51.0541 56.2362L57.7989 57.8767C58.5983 58.071 59.2439 58.5723 59.6399 59.223C60.0366 59.8749 60.1861 60.6786 59.9923 61.4761L58.9378 65.8139Z" fill="#FEFEFE" fill-opacity="0.1"/>
<path fill-rule="evenodd" clip-rule="evenodd" d="M47.5514 67.0681C57.6374 67.0681 65.8138 75.2445 65.8138 85.3305C65.8138 95.4164 57.6374 103.593 47.5514 103.593C37.4655 103.593 29.2891 95.4166 29.2891 85.3305C29.2894 75.2445 37.4655 67.0681 47.5514 67.0681ZM58.4948 78.6703C56.7893 75.8687 54.0164 73.7178 50.5805 72.8821C47.1429 72.0462 43.6918 72.6824 40.8913 74.3871C38.0896 76.0926 35.9388 78.8654 35.1031 82.3014C34.2671 85.739 34.9034 89.1901 36.6081 91.9906C38.3136 94.7922 41.0864 96.9431 44.5224 97.7788C47.96 98.615 51.411 97.9785 54.2116 96.2738C57.0132 94.5683 59.1641 91.7955 59.9998 88.3595C60.836 84.9219 60.1995 81.4709 58.4948 78.6703Z" fill="#FEFEFE" fill-opacity="0.1"/>
<path fill-rule="evenodd" clip-rule="evenodd" d="M114.334 93.7229C115.707 94.5301 116.965 95.4851 118.091 96.5605C119.238 97.6572 120.252 98.8808 121.114 100.202L124.923 99.0856C125.661 98.8695 126.419 98.9746 127.047 99.3175C127.676 99.6619 128.176 100.246 128.393 100.988L130.159 107.014C130.375 107.752 130.27 108.51 129.927 109.138C129.582 109.768 128.999 110.267 128.261 110.484L128.212 110.497L124.457 111.597C124.451 112.242 124.415 112.889 124.348 113.536C124.253 114.445 124.096 115.362 123.873 116.281C123.648 117.204 123.367 118.091 123.036 118.937C122.799 119.542 122.533 120.134 122.241 120.711L125.105 123.445C125.663 123.978 125.952 124.691 125.969 125.41C125.985 126.125 125.73 126.847 125.2 127.403L120.845 131.964L120.847 131.966C120.83 131.984 120.812 132 120.794 132.016C120.27 132.527 119.587 132.793 118.899 132.809C118.184 132.826 117.463 132.57 116.906 132.04L116.887 132.021L116.886 132.023L116.851 131.986L114.037 129.3C112.667 130.076 111.205 130.696 109.682 131.144C108.187 131.582 106.631 131.853 105.039 131.94L104.103 135.787C103.921 136.538 103.45 137.144 102.839 137.516C102.227 137.889 101.472 138.029 100.724 137.847L94.6219 136.363C93.8714 136.18 93.2651 135.71 92.8933 135.099C92.5208 134.487 92.3805 133.732 92.5627 132.983L93.4992 129.133C92.1254 128.326 90.8677 127.371 89.742 126.295C88.5942 125.199 87.5809 123.975 86.7191 122.654L82.9074 123.771C82.1706 123.986 81.4129 123.881 80.7858 123.538C80.1555 123.194 79.6558 122.61 79.4394 121.872L79.4262 121.823L77.674 115.842C77.4579 115.104 77.563 114.346 77.9059 113.718C78.2503 113.089 78.8346 112.589 79.5762 112.372L83.3753 111.259C83.3807 110.614 83.4167 109.967 83.4842 109.32C83.5791 108.41 83.7366 107.494 83.96 106.575C84.1847 105.651 84.4653 104.765 84.7967 103.918C85.0335 103.314 85.2991 102.722 85.5915 102.145L82.7079 99.3923L82.706 99.3941C82.6886 99.3767 82.6722 99.3589 82.6563 99.3409C82.1448 98.817 81.8792 98.1346 81.8634 97.4459C81.8467 96.7312 82.1018 96.0095 82.6327 95.4534L82.6512 95.434L82.6496 95.4324L82.6864 95.3975C84.1186 93.8973 85.5434 92.3792 86.9877 90.8922L86.9858 90.8903C87.0032 90.8729 87.0212 90.8562 87.0393 90.8403C87.5631 90.3291 88.2456 90.0635 88.934 90.0477C89.6487 90.031 90.3704 90.2861 90.9265 90.8167L90.9459 90.8352L90.9475 90.8336L90.9825 90.8705L93.7962 93.5565C95.1665 92.7802 96.6279 92.1596 98.1514 91.7126C99.6462 91.2739 101.203 91.003 102.795 90.9167L103.731 87.0689C103.913 86.3184 104.384 85.712 104.995 85.3403C105.607 84.9678 106.361 84.8274 107.11 85.0097L113.212 86.4937C113.962 86.6762 114.569 87.1469 114.941 87.7578C115.313 88.3701 115.453 89.1246 115.271 89.8732L114.334 93.7229ZM113.728 105.456C112.199 102.944 109.713 101.016 106.632 100.266C103.55 99.5165 100.455 100.087 97.9442 101.616C95.4321 103.145 93.5035 105.631 92.7541 108.712C92.0044 111.794 92.5751 114.889 94.1037 117.4C95.6328 119.912 98.1192 121.841 101.2 122.59C104.282 123.34 107.377 122.769 109.888 121.24C112.4 119.711 114.329 117.225 115.078 114.144C115.827 111.062 115.257 107.967 113.728 105.456Z" fill="#FEFEFE" fill-opacity="0.1"/>
<path fill-rule="evenodd" clip-rule="evenodd" d="M114.334 93.7229C115.707 94.53 116.965 95.4851 118.091 96.5605L111.53 102.824C110.174 101.622 108.514 100.724 106.632 100.266C103.55 99.5164 100.455 100.087 97.9442 101.616C95.4321 103.145 93.5035 105.631 92.7541 108.712C92.0045 111.794 92.5751 114.889 94.1037 117.4C94.3647 117.829 94.6537 118.241 94.969 118.632L88.4083 124.896C87.7941 124.187 87.2296 123.438 86.7186 122.654L82.9069 123.771C82.1701 123.987 81.4124 123.881 80.7853 123.538C80.155 123.194 79.6553 122.611 79.4389 121.872L79.4257 121.823L77.6735 115.842C77.4574 115.105 77.5625 114.346 77.9055 113.718C78.2498 113.089 78.8341 112.589 79.5757 112.372L83.3749 111.259C83.3802 110.614 83.4162 109.967 83.4837 109.32C83.5786 108.41 83.7361 107.494 83.9595 106.576C84.1842 105.652 84.4648 104.765 84.7962 103.919C85.033 103.314 85.2986 102.722 85.5911 102.145L82.7074 99.3925L82.7056 99.3944C82.6881 99.3769 82.6717 99.3592 82.6558 99.3412C82.1443 98.8173 81.8788 98.1348 81.8629 97.4462C81.8462 96.7315 82.1013 96.0098 82.6322 95.4536L82.6507 95.4343L82.6491 95.4327L82.6859 95.3977C84.1181 93.8976 85.5429 92.3794 86.9872 90.8925L86.9853 90.8906C87.0028 90.8731 87.0208 90.8565 87.0388 90.8406C87.5627 90.3293 88.2451 90.0638 88.9335 90.0479C89.6482 90.0313 90.3699 90.2863 90.9261 90.8169L90.9454 90.8355L90.947 90.8339L90.982 90.8707L93.7957 93.5567C95.166 92.7805 96.6274 92.1598 98.151 91.7128C99.6457 91.2742 101.203 91.0032 102.794 90.9169L103.73 87.0692C103.913 86.3187 104.383 85.7123 104.994 85.3405C105.606 84.968 106.361 84.8277 107.11 85.0099L113.211 86.4939C113.962 86.6765 114.568 87.1471 114.94 87.7581C115.313 88.3704 115.453 89.1249 115.271 89.8735L114.334 93.7229Z" fill="#FEFEFE" fill-opacity="0.1"/>
<path fill-rule="evenodd" clip-rule="evenodd" d="M103.916 95.4523C112.739 95.4523 119.891 102.605 119.891 111.428C119.891 120.251 112.739 127.403 103.916 127.403C95.0926 127.403 87.9403 120.251 87.9403 111.428C87.9403 102.605 95.0929 95.4523 103.916 95.4523ZM113.728 105.456C112.199 102.944 109.713 101.015 106.632 100.266C103.55 99.5164 100.455 100.087 97.9442 101.616C95.4321 103.145 93.5035 105.631 92.7541 108.712C92.0045 111.794 92.5751 114.889 94.1037 117.4C95.6329 119.912 98.1192 121.841 101.2 122.59C104.282 123.34 107.377 122.769 109.888 121.24C112.4 119.711 114.329 117.225 115.078 114.144C115.827 111.062 115.257 107.967 113.728 105.456Z" fill="#FEFEFE" fill-opacity="0.1"/>
</svg>
