<svg width="26" height="26" viewBox="0 0 26 26" fill="none" xmlns="http://www.w3.org/2000/svg">
<path fill-rule="evenodd" clip-rule="evenodd" d="M9.97437 7.10887C11.3589 5.88796 13.1767 5.14587 15.1668 5.14587C19.5012 5.14587 22.021 8.66562 22.021 13C22.021 17.3345 19.5012 20.8542 15.1668 20.8542C13.1767 20.8542 11.3589 20.1121 9.97437 18.8912C9.63854 18.5944 9.12396 18.6258 8.82712 18.9627C8.53029 19.2985 8.56279 19.812 8.89862 20.1089C10.5702 21.5844 12.765 22.4792 15.1668 22.4792C20.3982 22.4792 24.646 18.2315 24.646 13C24.646 7.76862 20.3982 3.52087 15.1668 3.52087C12.765 3.52087 10.5702 4.41571 8.89862 5.89121C8.56279 6.18804 8.53029 6.70154 8.82712 7.03737C9.12396 7.37429 9.63854 7.40571 9.97437 7.10887Z" fill="#000"/>
<path fill-rule="evenodd" clip-rule="evenodd" d="M13.9209 8.2334V12.5667C13.9209 12.7823 14.0065 12.9892 14.1592 13.1409L17.6259 16.6076C17.9422 16.925 18.4579 16.925 18.7742 16.6076C19.0916 16.2912 19.0916 15.7756 18.7742 15.4592L15.5459 12.2298V8.2334C15.5459 7.7849 15.1819 7.4209 14.7334 7.4209C14.2849 7.4209 13.9209 7.7849 13.9209 8.2334Z" fill="#000"/>
<path fill-rule="evenodd" clip-rule="evenodd" d="M2.25425 10.1959H9.45425C9.95105 10.1959 10.3542 9.79267 10.3542 9.29587C10.3542 8.79907 9.95105 8.39587 9.45425 8.39587H2.25425C1.75745 8.39587 1.35425 8.79907 1.35425 9.29587C1.35425 9.79267 1.75745 10.1959 2.25425 10.1959Z" fill="#000"/>
<path fill-rule="evenodd" clip-rule="evenodd" d="M3.3375 13.9875H10.5375C11.0343 13.9875 11.4375 13.5843 11.4375 13.0875C11.4375 12.5907 11.0343 12.1875 10.5375 12.1875H3.3375C2.8407 12.1875 2.4375 12.5907 2.4375 13.0875C2.4375 13.5843 2.8407 13.9875 3.3375 13.9875Z" fill="#000"/>
<path fill-rule="evenodd" clip-rule="evenodd" d="M4.421 17.7792H11.621C12.1178 17.7792 12.521 17.376 12.521 16.8792C12.521 16.3824 12.1178 15.9792 11.621 15.9792H4.421C3.9242 15.9792 3.521 16.3824 3.521 16.8792C3.521 17.376 3.9242 17.7792 4.421 17.7792Z" fill="#000"/>
</svg>
