<svg width="36" height="36" viewBox="0 0 36 36" fill="none" xmlns="http://www.w3.org/2000/svg">
<rect width="36" height="36" rx="8" fill="#7D6FD2"/>
<path d="M19.4417 10.925L20.9083 13.8583C21.1083 14.2667 21.6417 14.6583 22.0917 14.7333L24.75 15.175C26.45 15.4583 26.85 16.6917 25.625 17.9083L23.5583 19.975C23.2083 20.325 23.0167 21 23.125 21.4833L23.7167 24.0417C24.1833 26.0667 23.1083 26.85 21.3167 25.7917L18.825 24.3167C18.375 24.05 17.6333 24.05 17.175 24.3167L14.6833 25.7917C12.9 26.85 11.8167 26.0583 12.2833 24.0417L12.875 21.4833C12.9833 21 12.7917 20.325 12.4417 19.975L10.375 17.9083C9.15833 16.6917 9.55 15.4583 11.25 15.175L13.9083 14.7333C14.35 14.6583 14.8833 14.2667 15.0833 13.8583L16.55 10.925C17.35 9.33335 18.65 9.33335 19.4417 10.925Z" stroke="white" stroke-width="1.5" stroke-linecap="round" stroke-linejoin="round"/>
</svg>
