<svg width="22" height="22" viewBox="0 0 22 22" fill="none" xmlns="http://www.w3.org/2000/svg">
<path fill-rule="evenodd" clip-rule="evenodd" d="M9.91675 2.33329H8.83342C8.23542 2.33329 7.75008 1.84796 7.75008 1.24996C7.75008 0.651959 8.23542 0.166626 8.83342 0.166626H13.1667C13.7647 0.166626 14.2501 0.651959 14.2501 1.24996C14.2501 1.84796 13.7647 2.33329 13.1667 2.33329H12.0834V4.49996H20.7501C21.3481 4.49996 21.8334 4.98529 21.8334 5.58329V18.5833C21.8334 19.1813 21.3481 19.6666 20.7501 19.6666H12.0834V20.75C12.0834 21.348 11.5981 21.8333 11.0001 21.8333C10.4021 21.8333 9.91675 21.348 9.91675 20.75V19.6666H1.25008C0.652081 19.6666 0.166748 19.1813 0.166748 18.5833V5.58329C0.166748 4.98529 0.652081 4.49996 1.25008 4.49996H9.91675V2.33329ZM9.91675 6.66663H2.33341V17.5H9.91675V6.66663ZM12.0834 6.66663V17.5H19.6667V6.66663H12.0834Z" fill="#000"/>
</svg>
