<svg width="20" height="20" viewBox="0 0 20 20" fill="none" xmlns="http://www.w3.org/2000/svg">
<path d="M15 13.9583C14.8667 13.9583 14.7416 13.9166 14.625 13.8333C14.35 13.6249 14.2917 13.2333 14.5 12.9583C15.8083 11.2166 15.8083 8.78328 14.5 7.04161C14.2917 6.76661 14.35 6.37494 14.625 6.16661C14.9 5.95828 15.2917 6.01661 15.5 6.29161C17.1333 8.47494 17.1333 11.5249 15.5 13.7083C15.375 13.8749 15.1917 13.9583 15 13.9583Z" fill="white"/>
<path d="M16.525 16.0417C16.3917 16.0417 16.2667 16 16.15 15.9167C15.875 15.7084 15.8167 15.3167 16.025 15.0417C18.25 12.075 18.25 7.92502 16.025 4.95836C15.8167 4.68336 15.875 4.29169 16.15 4.08336C16.425 3.87502 16.8167 3.93336 17.025 4.20836C19.5833 7.61669 19.5833 12.3834 17.025 15.7917C16.9083 15.9584 16.7167 16.0417 16.525 16.0417Z" fill="white"/>
<path d="M11.6833 3.15005C10.75 2.63339 9.55829 2.76672 8.34163 3.52505L5.90829 5.05005C5.74163 5.15005 5.54996 5.20839 5.35829 5.20839H4.58329H4.16663C2.14996 5.20839 1.04163 6.31672 1.04163 8.33339V11.6667C1.04163 13.6834 2.14996 14.7917 4.16663 14.7917H4.58329H5.35829C5.54996 14.7917 5.74163 14.8501 5.90829 14.9501L8.34163 16.4751C9.07496 16.9334 9.79163 17.1584 10.4583 17.1584C10.8916 17.1584 11.3083 17.0584 11.6833 16.8501C12.6083 16.3334 13.125 15.2584 13.125 13.8251V6.17505C13.125 4.74172 12.6083 3.66672 11.6833 3.15005Z" fill="white"/>
</svg>
